<svg width="1593" height="647" viewBox="0 0 1593 647" fill="none" xmlns="http://www.w3.org/2000/svg">
<g filter="url(#filter0_dd_262_19)">
<rect x="82.8755" width="1506.12" height="543.094" rx="50" fill="white"/>
</g>
<g clip-path="url(#clip0_262_19)">
<path d="M18.9084 520.051H89.9408V636.884H18.9084V520.051Z" fill="#B2B2B2"/>
<path d="M89.662 520.051H160.694V636.884H89.662V520.051Z" fill="#D1D1D1"/>
<path d="M126.877 378.37L129.905 441.172L144.143 487.225H118.509L105.195 447.545L101.034 402.451L126.877 378.37Z" fill="#F7EBE7"/>
<path d="M127.594 597.875L122.439 622.771L139.752 624.903L144.676 600.391L127.594 597.875Z" fill="#FCC9A7"/>
<path d="M121.393 620.518C121.832 619.177 123.219 618.697 124.167 619.56C126.016 621.261 129.345 623.346 134.268 622.843C139.377 622.316 141.295 619.201 142.035 616.948C142.428 615.774 143.514 615.175 144.485 615.678L175.482 631.828C177.355 632.81 178.834 634.631 179.574 636.908C180.267 639.04 178.88 641.34 176.938 641.293L123.381 639.759C121.278 639.711 119.66 637.555 119.845 635.063L120.723 622.843C120.746 622.651 120.769 622.435 120.839 622.244L121.393 620.518Z" fill="#1F252A"/>
<path d="M127.893 477.496H168.09C168.09 477.496 192.569 476.083 194.025 496.905C195.481 517.727 158.127 577.293 152.279 609.113L118.67 606.238L142.871 519.715L82.6801 520.075C78.2189 520.099 73.7808 519.428 69.5739 517.918C57.8546 513.701 39.9637 507.663 49.7182 474.214L127.893 477.496Z" fill="#092330"/>
<path d="M96.8676 597.971L88.6846 627.731L105.998 629.863L113.95 600.487L96.8676 597.971Z" fill="#FCC9A7"/>
<path d="M87.651 625.478C88.0902 624.136 89.4771 623.657 90.4248 624.52C92.274 626.221 95.6025 628.306 100.526 627.802C105.634 627.275 107.553 624.16 108.293 621.908C108.686 620.734 109.772 620.135 110.743 620.638L141.74 636.788C143.612 637.77 145.092 639.591 145.831 641.867C146.525 644 145.138 646.3 143.196 646.252L88.7143 644.719C86.6108 644.671 84.9928 642.514 85.1777 640.022L87.0038 627.802C87.0269 627.611 87.05 627.395 87.1194 627.203L87.651 625.478Z" fill="#1F252A"/>
<path d="M79.8613 353.69C78.9598 354.601 38.624 365.264 38.624 365.264L47.2459 389.009L91.3492 385.558L79.8613 353.69Z" fill="#F7EBE7"/>
<path d="M96.4973 359.417C96.4973 359.417 122.779 369.361 126.87 378.37C125.46 391.094 121.138 403.338 114.018 413.809C105.281 426.652 94.4863 448.72 96.4742 477.497H20.4954C20.4954 477.497 24.5867 396.533 47.0776 365.456L96.4973 359.417Z" fill="#F7EBE7"/>
<path d="M87.8791 372.26C80.413 370.679 75.6051 363.131 77.1307 355.392L81.5919 332.749L108.613 338.475L104.152 361.118C102.626 368.858 95.3452 373.842 87.8791 372.26Z" fill="#FCC9A7"/>
<path d="M79.735 340.656C79.735 340.656 82.5782 359.01 96.3547 360.112C108.421 361.071 107.265 342.98 107.265 342.98L79.735 340.656Z" fill="#F4BE9A"/>
<path d="M95.2722 350.049L92.8914 349.473C80.9409 346.598 73.4979 334.234 76.2717 321.871L79.4156 307.758C82.1894 295.37 94.1165 287.654 106.044 290.53L108.425 291.105C120.375 293.98 127.818 306.344 125.044 318.708L121.901 332.821C119.127 345.208 107.2 352.924 95.2722 350.049Z" fill="#FCC9A7"/>
<path d="M83.7615 327.741C84.3163 328.724 84.8481 330.209 85.0331 332.461C85.2411 335.313 86.628 338.02 88.9395 339.602C95.5735 344.154 100.635 332.629 110.436 334.666C110.436 334.666 114.273 335.265 115.036 339.698C115.799 344.106 121.139 336.391 122.317 331.12C123.496 325.848 124.097 357.213 99.9651 354.553C99.9651 354.553 87.7835 354.146 79.5777 341.279C78.6762 339.865 78.1448 338.212 78.0986 336.511C78.0292 333.995 78.3757 330.185 80.6872 327.454C81.4965 326.447 83.1143 326.591 83.7615 327.741Z" fill="#1C2226"/>
<path d="M83.7377 320.625C83.7377 320.625 94.1625 317.054 92.4058 301.264C92.4058 301.264 118.295 326.663 137.48 308.021C137.48 308.021 128.904 305.649 125.367 299.563C118.918 288.469 100.38 273.182 85.5404 290.865C85.5404 290.865 67.4877 287.966 72.6654 316.791L83.7377 320.625Z" fill="#1C2226"/>
<path d="M83.7369 320.625C82.743 325.034 78.4896 327.789 74.2365 326.783C69.9602 325.752 67.3253 321.344 68.2962 316.935C69.2901 312.526 73.5433 309.771 77.7964 310.777C82.0727 311.807 84.7309 316.216 83.7369 320.625Z" fill="#FCC9A7"/>
<path d="M96.9185 371.374L85.754 371.59L93.5668 388.362L102.004 372.284L96.9185 371.374Z" fill="#0C2C40"/>
<path d="M76.1862 354.434L90.5637 371.829L81.2021 382.971L63.9815 358.435C63.9815 358.435 68.3964 351.079 76.1862 354.434Z" fill="#FFF7F3"/>
<path d="M96.9148 371.374L105.19 381.054L111.015 365.958C111.015 365.958 109.489 359.177 104.728 360.471L96.9148 371.374Z" fill="#FFF7F3"/>
<path d="M93.8689 382.947C93.8689 382.947 104.663 412.131 101.982 453.536L91.3493 463.599L78.9366 451.212L92.3199 381.054L93.8689 382.947Z" fill="#0C2C40"/>
<path d="M73.6882 452.242L96.8032 460.125L98.329 474.19L67.6786 464.701L73.6882 452.242Z" fill="#FCC9A7"/>
<path d="M93.3569 469.422C93.3569 477.64 99.7831 484.325 107.735 484.325C115.663 484.325 122.112 477.664 122.112 469.422C122.112 461.203 115.686 454.518 107.735 454.518C99.8063 454.518 93.3569 461.179 93.3569 469.422Z" fill="#FCC9A7"/>
<path d="M96.4968 477.496H136.671C136.671 477.496 161.149 476.083 162.606 496.905C164.062 517.727 123.958 581.127 118.11 612.923L84.5002 610.048L111.452 519.692L51.2609 520.051C46.7997 520.075 42.3616 519.404 38.1547 517.894C26.4357 513.677 8.5447 507.639 18.2992 474.19L96.4968 477.496Z" fill="#0C2C40"/>
<path d="M217.692 403.865H148.231C145.943 403.865 143.978 405.518 143.493 407.842L130.41 471.435C129.763 474.55 132.074 477.497 135.148 477.497H205.764C208.076 477.497 210.064 475.796 210.503 473.447L222.43 409.855C223.031 406.74 220.743 403.865 217.692 403.865Z" fill="#B2B2B2"/>
<path d="M221.692 403.865H152.254C149.966 403.865 148.001 405.518 147.516 407.842L134.433 471.435C133.786 474.55 136.074 477.497 139.171 477.497H209.764C212.076 477.497 214.064 475.796 214.503 473.447L226.43 409.855C227.031 406.74 224.743 403.865 221.692 403.865Z" fill="#D1D1D1"/>
<path d="M132.302 472.057H84.8474C83.3912 472.057 82.2354 473.28 82.2354 474.765C82.2354 476.275 83.4143 477.473 84.8474 477.473H133.227L132.302 472.057Z" fill="#B2B2B2"/>
<path d="M178.696 439.015C178.696 443.352 182.071 446.85 186.255 446.85C190.439 446.85 193.814 443.328 193.814 439.015C193.814 434.678 190.416 431.18 186.255 431.18C182.071 431.18 178.696 434.678 178.696 439.015Z" fill="white"/>
<path d="M55.1978 387.883L29.8176 430.365L90.5637 452.84L82.2423 471.482C82.2423 471.482 30.303 465.444 5.20019 445.389C2.8887 443.544 1.73294 440.549 2.1259 437.553C3.30476 427.969 8.34381 404.703 29.8176 371.637C34.1863 364.904 42.8775 362.867 49.6502 366.941C56.7003 371.158 59.1736 380.503 55.1978 387.883Z" fill="#F7EBE7"/>
<path d="M74.4012 446.851L29.8125 430.366L52.1185 393.011" stroke="#EADDD8" stroke-width="0.7599" stroke-miterlimit="10" stroke-linecap="round" stroke-linejoin="round"/>
<path d="M104.595 432.785L115.575 402.738" stroke="#EADDD8" stroke-width="0.7599" stroke-miterlimit="10" stroke-linecap="round" stroke-linejoin="round"/>
<path d="M73.688 470.212C73.688 470.212 39.5703 465.779 22.3728 455.572" stroke="#EADDD8" stroke-width="0.7599" stroke-miterlimit="10" stroke-linecap="round" stroke-linejoin="round"/>
</g>
<defs>
<filter id="filter0_dd_262_19" x="78.8755" y="0" width="1514.12" height="551.094" filterUnits="userSpaceOnUse" color-interpolation-filters="sRGB">
<feFlood flood-opacity="0" result="BackgroundImageFix"/>
<feColorMatrix in="SourceAlpha" type="matrix" values="0 0 0 0 0 0 0 0 0 0 0 0 0 0 0 0 0 0 127 0" result="hardAlpha"/>
<feOffset dy="4"/>
<feGaussianBlur stdDeviation="2"/>
<feComposite in2="hardAlpha" operator="out"/>
<feColorMatrix type="matrix" values="0 0 0 0 0 0 0 0 0 0 0 0 0 0 0 0 0 0 0.25 0"/>
<feBlend mode="normal" in2="BackgroundImageFix" result="effect1_dropShadow_262_19"/>
<feColorMatrix in="SourceAlpha" type="matrix" values="0 0 0 0 0 0 0 0 0 0 0 0 0 0 0 0 0 0 127 0" result="hardAlpha"/>
<feOffset dy="4"/>
<feGaussianBlur stdDeviation="2"/>
<feComposite in2="hardAlpha" operator="out"/>
<feColorMatrix type="matrix" values="0 0 0 0 0 0 0 0 0 0 0 0 0 0 0 0 0 0 0.25 0"/>
<feBlend mode="normal" in2="effect1_dropShadow_262_19" result="effect2_dropShadow_262_19"/>
<feBlend mode="normal" in="SourceGraphic" in2="effect2_dropShadow_262_19" result="shape"/>
</filter>
<clipPath id="clip0_262_19">
<rect width="226.526" height="364.205" fill="white" transform="matrix(-1 0 0 1 226.526 282.795)"/>
</clipPath>
</defs>
</svg>
