<svg width="100" height="102" viewBox="0 0 100 102" fill="none" xmlns="http://www.w3.org/2000/svg">
<g clip-path="url(#clip0_248_58)">
<path d="M26.4309 86.6496L28.0656 87.4672C34.8781 91.5543 42.5074 93.4617 50.1371 93.4617C74.1156 93.4617 93.7344 73.843 93.7344 49.8645C93.7344 38.4203 89.102 27.2484 80.9278 19.0738C72.7532 10.8992 61.8535 6.26719 50.1371 6.26719C26.1586 6.26719 6.53948 25.8859 6.81213 50.1371C6.81213 58.3113 9.26448 66.2137 13.3516 73.0254L14.4414 74.6605L10.0821 90.7371L26.4309 86.6496Z" fill="#00E676"/>
<path d="M85.5598 14.7141C76.2953 5.17734 63.4887 0 50.4094 0C22.6164 0 0.272656 22.616 0.544922 50.1367C0.544922 58.8562 2.99727 67.3035 7.08477 74.9328L0 100.819L26.4309 94.0066C33.7879 98.0941 41.9621 100.002 50.1371 100.002C77.6578 100.002 100.002 77.3852 100.002 49.8648C100.002 36.5129 94.8242 23.9785 85.5602 14.7141H85.5598ZM50.4094 91.5547C43.0523 91.5547 35.6953 89.6476 29.4281 85.8328L27.7934 85.0152L11.9895 89.1023L16.0766 73.5711L14.9867 71.9359C2.99727 52.5898 8.71953 26.9758 28.3383 14.9863C47.957 2.99727 73.298 8.71953 85.2875 28.3383C97.2766 47.957 91.5543 73.298 71.9359 85.2875C65.6684 89.3746 58.0391 91.5543 50.4094 91.5543V91.5547ZM74.3879 61.3094L71.3906 59.9469C71.3906 59.9469 67.0312 58.0394 64.3062 56.6769C64.0336 56.6769 63.7613 56.4043 63.4887 56.4043C62.6711 56.4043 62.1262 56.6769 61.5812 56.9496C61.5812 56.9496 61.309 57.2219 57.4941 61.5816C57.2215 62.1266 56.6766 62.3992 56.1316 62.3992H55.859C55.5867 62.3992 55.0418 62.1266 54.7691 61.8543L53.4066 61.3094C50.4094 59.9469 47.6848 58.3117 45.5047 56.132C44.9598 55.5871 44.1422 55.0422 43.5973 54.4973C41.6898 52.5898 39.7824 50.4098 38.4203 47.9574L38.1477 47.4125C37.8754 47.1398 37.8754 46.8676 37.6027 46.3227C37.6027 45.7777 37.6027 45.2328 37.8754 44.9602C37.8754 44.9602 38.9652 43.5977 39.7824 42.7805C40.3277 42.2352 40.6 41.418 41.1449 40.873C41.6898 40.0555 41.9625 38.9656 41.6898 38.148C41.4176 36.7855 38.1477 29.4285 37.3305 27.7937C36.7852 26.9762 36.2406 26.7039 35.423 26.4312H32.4258C31.8805 26.4312 31.3359 26.7039 30.7906 26.7039L30.518 26.9762C29.973 27.2488 29.4281 27.7937 28.8832 28.066C28.3383 28.6113 28.0656 29.1559 27.5207 29.7012C25.6133 32.1535 24.5234 35.1508 24.5234 38.148C24.5234 40.3277 25.0684 42.5078 25.8859 44.4152L26.1586 45.2328C28.6109 50.4098 31.8805 55.0422 36.2406 59.1293L37.3305 60.2191C38.1477 61.0367 38.9652 61.5816 39.5102 62.3988C45.2324 67.3039 51.7719 70.8461 59.1289 72.7535C59.9465 73.0258 61.0363 73.0258 61.8539 73.2984H64.5785C65.941 73.2984 67.5758 72.7535 68.666 72.2086C69.4832 71.6637 70.0281 71.6637 70.5731 71.1187L71.1184 70.5734C71.6633 70.0285 72.2082 69.7562 72.7531 69.2113C73.298 68.6664 73.843 68.1215 74.1156 67.5762C74.6605 66.4863 74.9328 65.1238 75.2055 63.7617V61.8543C75.2055 61.8543 74.9328 61.5816 74.3879 61.3094Z" fill="white"/>
</g>
<defs>
<clipPath id="clip0_248_58">
<rect width="100" height="101.172" fill="white"/>
</clipPath>
</defs>
</svg>
